<?xml version="1.0" standalone="no"?>
<!DOCTYPE svg PUBLIC "-//W3C//DTD SVG 20010904//EN"
 "http://www.w3.org/TR/2001/REC-SVG-20010904/DTD/svg10.dtd">
<svg version="1.0" xmlns="http://www.w3.org/2000/svg"
 role="img"
 width="256" height="256" viewBox="-8 -34 131 131"
 preserveAspectRatio="xMidYMid meet">
<title>KUHBS</title>
<metadata>
Created by potrace 1.16, written by Peter Selinger 2001-2019
</metadata>
<g transform="translate(0.000000,63.000000) scale(0.100000,-0.100000)"
fill="#6400A8" stroke="none">
<path d="M1042 598 c-12 -18 -41 -52 -66 -75 l-45 -42 29 -21 c17 -12 34 -18
40 -15 28 17 89 185 67 185 -3 0 -14 -15 -25 -32z"/>
<path d="M882 560 c-30 -33 -57 -73 -61 -88 -4 -15 -5 -72 -3 -127 l4 -100
114 -26 c63 -14 114 -22 114 -18 0 5 6 6 14 3 35 -13 86 36 86 82 0 59 -64 31
-76 -34 -4 -20 -9 -31 -11 -25 -9 24 18 80 42 91 32 15 31 25 -4 43 -61 30
-200 125 -201 136 0 6 9 33 20 59 11 26 19 51 18 56 -2 5 -27 -19 -56 -52z
m78 -195 c0 -8 -4 -15 -9 -15 -13 0 -22 16 -14 24 11 11 23 6 23 -9z m160 -85
c0 -5 -2 -10 -4 -10 -3 0 -8 5 -11 10 -3 6 -1 10 4 10 6 0 11 -4 11 -10z"/>
<path d="M395 481 l-120 -58 60 -27 c33 -15 91 -41 128 -58 l68 -32 120 59
c65 33 115 62 111 66 -10 9 -231 109 -240 108 -4 0 -61 -26 -127 -58z"/>
<path d="M663 346 l-123 -61 0 -142 c0 -79 2 -143 4 -143 3 0 44 19 92 41 48
23 104 47 123 54 l36 12 0 137 c0 75 -2 142 -5 150 -4 10 -35 -1 -127 -48z"/>
<path d="M254 384 c3 -9 6 -74 6 -145 l0 -130 38 -15 c20 -9 76 -33 125 -55
48 -21 89 -39 92 -39 3 0 5 65 5 144 l0 143 -123 57 c-131 60 -153 66 -143 40z"/>
<path d="M188 329 c-25 -12 -38 -27 -38 -39 0 -25 6 -25 37 0 14 11 31 20 38
20 11 0 25 21 25 36 0 9 -27 2 -62 -17z"/>
<path d="M62 283 c-10 -10 -29 -35 -41 -55 l-23 -38 49 0 c27 0 57 6 66 13 25
19 31 61 12 81 -21 21 -38 20 -63 -1z"/>
</g>
</svg>
