<?xml version="1.0" standalone="no"?>
<!DOCTYPE svg PUBLIC "-//W3C//DTD SVG 20010904//EN"
 "http://www.w3.org/TR/2001/REC-SVG-20010904/DTD/svg10.dtd">
<!-- Hermes Agent logo vectorized from website/static/img/logo.png. -->
<svg version="1.0" xmlns="http://www.w3.org/2000/svg"
 width="1772.000000pt" height="1798.000000pt" viewBox="0 0 1772.000000 1798.000000"
 preserveAspectRatio="xMidYMid meet">
<title>Hermes Agent</title>
<metadata>
Created by potrace 1.16, written by Peter Selinger 2001-2019
</metadata>
<g transform="translate(0.000000,1798.000000) scale(0.100000,-0.100000)"
fill="#000000" stroke="none">
<path d="M0 8990 l0 -8990 8860 0 8860 0 0 8990 0 8990 -8860 0 -8860 0 0
-8990z m17570 0 l0 -8830 -3891 0 c-3702 0 -3891 1 -3884 18 3 9 9 31 12 47 2
17 8 41 13 55 4 14 13 45 20 70 32 116 88 199 294 442 439 514 951 1007 1236
1190 105 67 231 126 315 148 17 5 55 15 85 23 131 35 336 54 693 64 222 6 274
1 467 -43 237 -55 371 -103 480 -173 156 -99 461 -381 686 -631 27 -30 51 -57
54 -60 12 -12 148 -179 172 -212 15 -20 34 -42 41 -50 7 -7 35 -44 62 -83 27
-38 52 -72 55 -75 17 -15 173 -265 180 -288 5 -15 13 -54 19 -87 8 -46 17 -66
41 -88 37 -33 86 -36 124 -6 30 24 31 37 11 116 -9 32 -22 107 -31 167 -11 76
-25 130 -46 175 -16 36 -37 82 -46 101 -70 153 -279 430 -439 580 -181 171
-474 399 -608 474 -16 9 -46 26 -65 38 -181 109 -333 180 -500 234 -137 44
-123 40 -315 84 -42 10 -105 18 -365 50 l-155 19 225 -5 c773 -17 1156 -111
1500 -369 323 -242 662 -670 794 -1000 15 -38 32 -79 36 -90 34 -80 80 -245
80 -285 0 -35 37 -195 51 -222 15 -28 67 -50 99 -43 16 4 41 20 55 37 31 37
32 76 5 192 -20 83 -20 89 -4 154 26 104 80 207 146 278 60 64 75 73 333 195
39 18 112 57 164 86 51 29 95 53 98 53 5 0 306 201 313 209 3 3 23 19 45 36
122 90 295 252 400 375 79 93 206 265 236 320 11 19 31 53 44 75 40 64 150
291 186 385 137 356 194 728 170 1104 -11 180 -16 219 -43 356 -23 118 -65
267 -99 354 -10 27 -19 53 -19 58 0 23 -114 243 -169 324 -32 49 -110 150
-172 224 -160 192 -172 197 -89 37 32 -61 66 -132 75 -157 9 -25 21 -54 25
-65 59 -136 100 -385 116 -699 16 -303 -60 -734 -178 -1016 -45 -106 -57 -132
-125 -270 -67 -134 -96 -189 -151 -280 -12 -19 -30 -51 -41 -70 -46 -84 -237
-359 -327 -472 -111 -138 -323 -356 -429 -440 -86 -68 -351 -248 -366 -248 -6
0 41 55 104 122 191 205 384 459 495 653 19 33 43 76 55 95 35 61 134 263 157
320 12 30 26 64 31 75 18 43 99 294 118 365 44 171 82 379 101 550 25 246 30
333 30 574 0 393 -27 657 -120 1166 -5 30 -24 123 -41 205 -31 148 -36 172
-59 270 -6 28 -15 68 -19 90 -5 22 -19 76 -30 120 -12 44 -36 132 -52 195 -16
63 -40 151 -53 195 -13 44 -27 91 -31 105 -3 14 -11 41 -16 60 -6 19 -14 51
-19 70 -5 19 -25 91 -45 160 -20 69 -43 150 -51 180 -8 30 -25 91 -38 135 -13
44 -27 91 -31 105 -3 14 -11 41 -16 60 -6 19 -14 51 -19 70 -4 19 -20 78 -34
130 -28 100 -111 417 -121 460 -4 14 -10 41 -15 60 -5 19 -13 55 -19 80 -16
70 -61 261 -71 300 -5 19 -14 58 -20 85 -6 28 -15 66 -20 85 -10 38 -54 226
-71 300 -6 25 -14 61 -19 80 -5 19 -16 64 -24 100 -8 36 -24 103 -35 150 -11
47 -22 99 -26 115 -3 17 -10 49 -16 73 -5 23 -13 61 -18 85 -5 23 -17 74 -26
112 -22 92 -30 129 -45 195 -7 30 -16 71 -20 90 -4 19 -13 58 -19 85 -5 28
-18 82 -27 120 -8 39 -20 90 -24 115 -18 96 -29 156 -35 185 -3 17 -10 53 -15
80 -5 28 -16 84 -24 125 -8 41 -19 104 -26 140 -6 36 -16 85 -21 110 -20 97
-71 358 -80 410 -5 30 -14 78 -19 105 -5 28 -14 75 -20 105 -5 30 -14 73 -19
95 -5 22 -17 76 -26 120 -9 44 -21 96 -26 115 -15 64 -27 114 -37 160 -6 25
-27 108 -47 185 -20 77 -40 154 -44 170 -24 91 -163 515 -191 580 -5 11 -17
45 -28 75 -19 52 -222 570 -242 618 -6 12 -14 32 -19 45 -5 12 -16 38 -24 57
-8 19 -45 107 -83 195 -61 143 -205 439 -262 538 -12 20 -32 54 -43 75 -92
162 -122 211 -192 317 -44 66 -84 122 -88 123 -5 2 -9 8 -9 13 0 4 -28 45 -62
90 -35 45 -72 94 -84 110 -39 54 -260 306 -353 403 -49 51 -307 287 -372 341
-13 11 -60 50 -104 86 -272 223 -572 418 -900 584 -211 106 -258 127 -465 207
-85 32 -163 64 -172 69 -10 5 -25 9 -33 9 -8 0 -23 4 -33 9 -18 10 -197 70
-267 89 -22 7 -78 23 -125 37 -123 37 -140 41 -195 54 -27 7 -66 16 -85 21
-159 40 -356 80 -535 109 -66 11 -256 34 -410 51 -127 13 -600 13 -719 0 -50
-6 -152 -17 -226 -26 -128 -14 -171 -20 -350 -45 -80 -11 -319 -54 -385 -68
-22 -5 -67 -15 -100 -21 -33 -6 -74 -15 -91 -21 -17 -5 -39 -9 -49 -9 -10 0
-32 -4 -49 -9 -17 -5 -53 -14 -81 -20 -107 -22 -449 -103 -510 -121 -16 -5
-50 -14 -75 -20 -25 -7 -56 -16 -70 -20 -14 -4 -43 -13 -65 -18 -102 -28 -487
-155 -550 -182 -11 -4 -65 -25 -120 -46 -144 -54 -428 -174 -640 -272 -126
-58 -559 -278 -645 -327 -36 -21 -78 -45 -95 -55 -82 -47 -318 -192 -464 -285
-109 -70 -431 -299 -542 -387 -19 -14 -70 -55 -114 -89 -181 -142 -421 -357
-570 -510 -210 -217 -358 -402 -523 -656 -51 -78 -92 -144 -92 -146 0 -3 -25
-48 -55 -102 -57 -99 -245 -474 -279 -555 -11 -25 -29 -67 -42 -95 -33 -74
-114 -289 -114 -303 0 -7 -4 -20 -9 -30 -5 -9 -26 -71 -46 -137 -20 -66 -40
-131 -45 -145 -20 -57 -88 -353 -109 -477 -50 -290 -56 -361 -56 -688 1 -293
9 -396 45 -575 67 -335 217 -653 430 -915 93 -114 304 -298 456 -397 95 -62
319 -169 424 -203 47 -15 94 -31 105 -35 11 -4 40 -13 65 -20 25 -6 59 -16 76
-21 40 -12 64 -12 64 1 0 6 -5 10 -11 10 -16 0 -130 80 -182 129 -105 98 -248
336 -340 566 -80 200 -126 349 -98 319 5 -5 32 -55 61 -112 143 -283 425 -588
712 -770 l58 -37 -6 -50 c-3 -27 -10 -99 -15 -160 -9 -120 -20 -236 -44 -480
-8 -88 -20 -214 -26 -280 -6 -66 -15 -165 -20 -220 -5 -55 -14 -152 -19 -215
-13 -150 -26 -283 -45 -455 -8 -77 -20 -185 -25 -240 -21 -205 -62 -572 -79
-705 -6 -41 -15 -118 -21 -170 -20 -176 -43 -350 -71 -535 -11 -77 -25 -167
-29 -200 -25 -170 -39 -243 -111 -590 -8 -40 -18 -83 -38 -160 -21 -82 -83
-251 -122 -331 -82 -169 -176 -284 -298 -362 -96 -63 -152 -76 -321 -76 -165
-1 -194 5 -327 70 -196 96 -337 272 -412 516 -46 148 -56 225 -55 428 1 269
30 395 144 623 80 158 68 156 -80 -14 -216 -248 -337 -474 -385 -719 -47 -247
-47 -658 1 -850 67 -270 209 -517 393 -685 54 -49 147 -120 181 -137 14 -7 41
-22 60 -33 112 -67 379 -135 531 -135 131 0 360 50 489 107 236 104 406 220
591 403 218 217 308 350 474 705 l15 30 0 -31 c0 -62 -41 -263 -80 -384 -93
-291 -248 -549 -454 -756 -126 -126 -196 -181 -311 -245 -129 -71 -176 -90
-299 -119 -104 -25 -314 -27 -419 -4 -530 116 -932 410 -1132 828 -74 155
-119 322 -156 576 -7 47 -16 89 -20 94 -14 16 -22 -129 -15 -284 21 -507 141
-887 375 -1184 105 -134 218 -238 383 -357 127 -91 294 -182 478 -261 14 -6
33 -14 42 -19 10 -5 26 -9 36 -9 10 0 22 -4 28 -9 13 -11 311 -101 338 -101 2
0 7 -35 11 -77 7 -71 19 -140 43 -233 11 -44 51 -137 72 -170 8 -14 22 -38 30
-53 32 -64 227 -267 256 -267 4 0 15 -6 23 -14 35 -29 136 -77 234 -109 176
-59 196 -62 412 -61 182 1 209 4 303 28 341 87 648 358 841 741 29 58 50 91
50 78 1 -29 -75 -372 -98 -443 -5 -14 -14 -45 -21 -70 -33 -115 -91 -281 -126
-358 -43 -93 -146 -302 -171 -347 -41 -72 -142 -220 -202 -295 -102 -127 -291
-309 -393 -378 l-47 -32 -1705 0 -1706 0 0 8830 0 8830 8710 0 8710 0 0 -8830z
m-9940 8035 c275 -24 352 -38 635 -114 46 -13 186 -61 225 -78 19 -8 44 -18
55 -23 65 -24 304 -140 375 -180 366 -210 788 -586 1122 -1001 169 -210 364
-493 478 -694 19 -33 43 -73 52 -90 30 -51 234 -466 272 -550 105 -240 258
-671 327 -920 6 -22 15 -51 19 -65 18 -56 63 -256 89 -395 7 -33 16 -79 21
-102 22 -97 23 -149 5 -181 -19 -32 -32 -41 -107 -67 -72 -26 -93 -54 -92
-126 1 -53 4 -64 32 -92 19 -20 61 -43 109 -61 140 -53 336 -162 456 -253 57
-44 134 -129 124 -139 -3 -3 -23 6 -45 20 -21 13 -87 49 -144 79 -58 31 -114
60 -124 66 -24 13 -246 114 -289 131 -116 45 -161 85 -184 162 -7 24 -17 53
-22 66 -5 13 -9 54 -9 92 0 78 4 83 110 132 83 39 94 55 87 130 -15 171 -48
228 -135 228 -27 0 -73 -4 -103 -9 -30 -6 -85 -15 -124 -21 -285 -44 -383 -62
-405 -72 -70 -34 -100 -88 -100 -183 0 -70 20 -129 50 -145 11 -6 56 -13 101
-17 107 -8 113 -17 106 -151 -14 -230 -24 -249 -297 -547 -84 -92 -136 -142
-138 -132 -5 23 71 167 128 242 28 37 82 98 120 136 110 108 134 179 88 260
-22 40 -81 75 -165 100 -23 6 -51 21 -61 33 -22 23 -24 32 -52 181 -34 179
-60 311 -70 350 -4 17 -13 57 -20 90 -15 72 -66 266 -90 345 -4 14 -13 45 -20
70 -22 75 -155 466 -180 525 -4 11 -15 38 -23 60 -8 22 -35 83 -60 135 -24 52
-63 136 -86 185 -211 452 -456 801 -816 1160 -170 171 -266 256 -451 400 -446
347 -911 564 -1379 644 -201 34 -231 36 -525 36 -302 0 -398 -7 -590 -41 -109
-20 -269 -58 -355 -85 -36 -11 -72 -18 -78 -16 -42 15 566 240 913 337 376
106 511 133 770 154 211 18 278 18 470 1z m5494 -1690 c216 -238 428 -517 526
-690 13 -22 34 -60 48 -85 14 -25 36 -63 49 -85 32 -54 115 -221 135 -270 9
-22 32 -74 51 -115 62 -133 84 -183 142 -325 31 -77 63 -156 72 -175 23 -53
28 -67 71 -180 68 -180 204 -595 246 -750 8 -30 33 -118 54 -195 22 -77 45
-165 52 -195 7 -30 16 -66 21 -80 12 -37 66 -301 90 -445 7 -38 18 -97 24
-130 7 -33 9 -69 6 -80 l-5 -20 -3 20 c-5 30 -33 165 -43 205 -4 19 -13 58
-19 85 -20 99 -54 243 -93 395 -50 196 -51 198 -83 300 -15 47 -35 112 -45
145 -47 157 -223 666 -270 780 -5 11 -45 115 -90 230 -45 116 -91 230 -102
255 -11 25 -24 54 -28 65 -41 97 -184 375 -247 480 -83 139 -251 388 -265 393
-4 2 -8 8 -8 13 0 16 -101 139 -113 139 -7 0 -4 -7 6 -14 9 -7 17 -19 17 -26
0 -6 9 -24 20 -39 10 -15 29 -58 41 -96 24 -73 24 -85 -13 -394 -11 -98 -1
-177 27 -211 7 -8 16 -26 20 -40 8 -28 -76 71 -135 158 -19 29 -38 52 -42 52
-11 0 -10 -26 1 -48 5 -9 13 -28 18 -42 6 -14 20 -45 33 -70 211 -416 340
-702 460 -1015 4 -11 13 -32 20 -47 7 -14 10 -32 7 -40 -3 -9 -7 -7 -12 7 -4
11 -22 52 -40 90 -17 39 -41 90 -51 115 -96 228 -362 706 -498 895 -40 57 -21
-61 36 -218 17 -45 32 -90 35 -99 10 -34 -12 -18 -40 30 -101 171 -112 186
-129 176 -13 -8 -9 -124 6 -194 22 -100 71 -237 147 -407 11 -26 25 -58 30
-70 5 -13 13 -33 18 -45 30 -71 194 -495 216 -558 14 -41 30 -83 36 -92 5 -10
9 -27 9 -37 0 -11 5 -23 10 -26 6 -3 10 -17 10 -30 0 -13 5 -27 10 -30 6 -3
10 -16 10 -28 -1 -27 -16 5 -85 178 -27 66 -58 143 -71 170 -18 42 -79 179
-166 375 -11 25 -57 119 -102 210 -110 220 -201 358 -329 503 -90 100 -108
103 -66 9 12 -26 27 -60 34 -77 7 -16 27 -60 44 -98 17 -37 31 -70 31 -72 0
-3 20 -51 45 -107 25 -57 51 -114 57 -128 5 -14 14 -33 19 -42 5 -10 9 -22 9
-27 0 -5 16 -44 35 -85 19 -42 35 -81 35 -86 0 -6 4 -18 9 -28 13 -25 32 -69
95 -232 32 -80 62 -156 68 -170 24 -55 73 -192 103 -285 9 -27 21 -60 27 -72
6 -11 8 -27 5 -35 -3 -9 -7 -7 -12 7 -10 29 -26 67 -36 87 -5 10 -9 22 -9 28
0 6 -11 33 -25 62 -14 28 -25 55 -25 59 0 8 -67 168 -114 272 -14 31 -38 83
-52 115 -57 127 -147 313 -301 625 -133 267 -167 327 -183 327 -11 0 -20 -5
-20 -10 0 -6 -39 -51 -86 -100 -67 -69 -93 -90 -113 -90 -15 0 -31 4 -36 9 -6
4 -46 23 -90 41 -44 18 -105 43 -135 57 -85 39 -145 62 -275 105 -66 22 -126
45 -133 51 -32 26 -20 -14 45 -146 38 -78 84 -171 100 -207 17 -36 51 -108 76
-160 52 -110 95 -204 127 -275 62 -137 73 -162 86 -192 8 -18 20 -48 28 -65 8
-18 42 -100 76 -183 34 -82 68 -163 75 -180 7 -16 39 -97 70 -180 31 -82 60
-159 65 -170 4 -11 14 -36 20 -55 7 -19 19 -48 26 -65 7 -16 27 -73 44 -125
43 -131 79 -232 91 -252 5 -10 9 -25 9 -33 0 -8 4 -23 10 -33 9 -17 33 -88
125 -377 26 -82 51 -159 55 -170 4 -11 13 -40 20 -65 7 -25 22 -72 33 -105 11
-33 24 -75 28 -92 5 -18 14 -49 19 -68 6 -19 14 -50 19 -67 5 -18 21 -71 36
-118 15 -47 31 -98 35 -115 5 -16 14 -47 19 -67 6 -21 15 -53 20 -70 5 -18 42
-141 81 -273 39 -132 76 -256 81 -275 6 -19 14 -48 19 -65 5 -16 14 -48 20
-70 13 -47 23 -80 45 -155 21 -70 33 -111 44 -152 4 -18 22 -73 38 -123 17
-49 36 -110 43 -135 7 -25 16 -54 20 -65 4 -11 34 -101 65 -200 32 -99 67
-207 78 -240 11 -33 23 -73 28 -90 4 -16 13 -48 19 -70 6 -22 15 -56 19 -75 5
-19 26 -105 48 -190 43 -165 94 -389 122 -530 5 -25 14 -70 20 -100 61 -301
67 -334 81 -420 5 -30 13 -84 19 -120 6 -36 15 -94 20 -130 5 -36 17 -114 26
-175 9 -60 21 -141 25 -180 5 -38 13 -108 19 -155 61 -501 107 -1058 86 -1038
-4 4 -11 58 -16 120 -24 321 -92 832 -154 1173 -9 50 -21 117 -27 150 -5 33
-13 80 -18 105 -5 25 -13 72 -19 105 -6 33 -22 114 -36 180 -23 110 -33 156
-55 270 -17 89 -52 252 -59 280 -5 17 -14 57 -22 90 -12 60 -94 387 -124 500
-33 126 -90 308 -160 520 -40 121 -96 294 -125 385 -28 91 -55 176 -60 190 -5
14 -18 59 -30 100 -12 41 -25 89 -30 105 -13 44 -168 584 -180 625 -18 65
-121 425 -130 455 -5 17 -21 68 -35 115 -14 47 -34 114 -45 150 -10 36 -31
103 -45 150 -48 162 -65 216 -156 495 -50 154 -95 288 -100 297 -5 10 -9 23
-9 29 0 7 -21 69 -46 138 -25 69 -57 158 -71 196 -46 130 -65 180 -99 265 -19
47 -34 89 -34 93 0 3 -11 30 -24 59 -13 29 -35 82 -49 118 -13 36 -34 86 -45
111 -12 25 -30 68 -41 95 -21 54 -69 159 -137 301 -38 80 -162 276 -223 353
-25 31 -47 17 -32 -21 25 -63 83 -258 79 -269 -2 -6 -38 40 -80 102 -85 124
-120 165 -220 255 -136 122 -358 193 -418 133 -31 -31 -33 -30 -95 122 -39 98
-36 102 83 94 53 -4 115 -11 137 -16 22 -5 67 -13 100 -20 33 -6 72 -15 87
-19 15 -5 29 -6 32 -3 9 8 7 93 -4 200 -16 148 -38 237 -84 337 -13 28 -27 61
-31 75 -8 25 -8 25 14 6 11 -11 21 -23 21 -28 0 -5 18 -35 39 -67 59 -86 221
-352 221 -361 0 -14 19 -22 58 -25 63 -4 182 -32 302 -70 247 -77 239 -78 352
37 135 138 130 120 61 235 -32 54 -114 181 -183 283 -148 217 -147 215 -132
206 16 -10 140 -159 261 -313 57 -73 110 -133 117 -133 12 0 23 30 39 108 6
29 10 32 43 32 40 0 142 -17 187 -31 46 -14 58 5 39 61 -13 39 -67 135 -84
150 -3 3 -28 37 -55 75 -54 76 -128 174 -247 326 -43 54 -78 102 -78 105 0 7
321 -323 410 -421 70 -78 248 -252 278 -272 12 -9 25 -13 28 -10 7 6 -117 194
-279 423 -99 139 -133 196 -89 148 27 -29 254 -304 289 -349 41 -54 148 -216
156 -237 3 -10 13 -18 20 -18 15 0 27 174 27 381 0 134 -27 204 -177 457 -24
41 -43 78 -43 83 0 6 34 -29 76 -78 42 -48 109 -124 148 -168z m-4283 -202
c75 -76 160 -169 190 -208 54 -69 149 -202 149 -208 0 -2 23 -42 50 -88 28
-46 80 -143 116 -216 36 -73 68 -133 70 -133 3 0 25 11 48 24 24 13 68 27 99
31 53 7 55 6 79 -27 14 -18 32 -49 40 -68 79 -181 89 -205 108 -260 7 -19 17
-45 23 -57 6 -13 8 -25 5 -28 -3 -3 -36 12 -74 33 -93 53 -160 83 -200 89 -31
5 -34 4 -34 -20 0 -15 7 -47 16 -73 8 -25 13 -48 10 -52 -8 -8 -5 -13 -96 173
-45 94 -106 206 -134 250 -29 44 -55 87 -58 95 -11 27 -161 236 -226 314 -62
76 -82 90 -82 60 0 -9 -16 -63 -35 -120 -19 -57 -35 -120 -35 -141 0 -48 35
-143 130 -348 43 -96 47 -117 12 -69 -16 22 -37 55 -46 72 -19 36 -119 142
-135 142 -19 0 -12 -62 18 -148 15 -45 31 -85 34 -89 4 -3 7 -16 7 -28 0 -11
4 -25 8 -30 22 -26 138 -343 129 -352 -5 -5 -34 52 -57 112 -68 177 -195 385
-235 385 -11 0 -15 -14 -15 -55 0 -65 -14 -71 -36 -15 -23 58 -72 76 -88 34
-3 -7 -12 -11 -19 -8 -8 3 -22 -3 -31 -12 -22 -21 -18 -55 30 -276 10 -42 -1
-34 -31 25 -52 99 -103 182 -125 202 -20 18 -39 20 -184 23 -169 3 -206 7
-206 21 0 5 -36 69 -80 142 -44 73 -80 137 -80 144 0 6 16 27 36 46 36 35 162
198 182 235 13 24 -12 78 -118 254 -87 146 -100 170 -94 170 9 0 34 -28 34
-38 0 -5 6 -15 14 -21 7 -6 43 -56 81 -111 37 -55 71 -102 76 -105 5 -3 29 1
55 10 25 8 79 20 120 26 42 7 74 16 74 23 0 21 -61 210 -95 294 -18 45 -29 82
-25 82 10 0 71 -68 135 -149 79 -100 167 -201 176 -201 4 0 52 31 106 69 159
112 183 131 183 141 0 10 -140 183 -152 188 -5 2 -8 8 -8 14 0 18 55 -31 191
-169z m-1568 -116 c172 -183 402 -481 520 -674 73 -120 233 -437 287 -568 53
-127 145 -403 138 -410 -3 -3 -52 42 -110 100 -105 105 -136 126 -124 83 4
-13 11 -84 16 -158 9 -141 42 -403 60 -479 8 -31 8 -47 0 -55 -7 -7 -10 -1
-10 20 0 17 -4 34 -8 40 -5 5 -14 34 -22 64 -7 30 -24 89 -37 130 -13 41 -28
93 -34 115 -16 58 -57 179 -86 255 -4 8 -14 35 -23 59 -35 95 -40 67 -40 -209
0 -161 -4 -259 -9 -255 -6 3 -35 55 -65 114 -55 109 -124 229 -178 308 -15 23
-28 46 -28 51 0 5 -9 17 -20 27 -24 22 -24 18 -5 -82 18 -97 65 -441 65 -477
0 -14 -4 -26 -10 -26 -5 0 -10 11 -10 25 0 13 -4 34 -9 47 -5 13 -22 64 -36
113 -15 50 -31 98 -36 107 -5 10 -9 24 -9 32 0 31 -53 136 -68 136 -9 0 -34
-9 -56 -19 -23 -10 -59 -27 -81 -36 -71 -30 -70 -29 -67 -81 1 -27 7 -67 13
-89 11 -41 8 -133 -3 -105 -3 8 -16 48 -29 88 -12 40 -33 83 -46 96 -29 29
-190 110 -258 129 -47 14 -82 23 -195 49 -25 5 -53 12 -62 15 -19 5 -30 39
-72 229 -9 40 -16 79 -16 87 0 17 54 44 240 118 159 64 174 72 178 102 2 13
-6 69 -17 124 -12 56 -21 107 -21 114 0 25 18 -6 39 -66 57 -169 91 -259 100
-268 12 -12 28 1 140 104 l81 76 0 61 c0 59 -6 80 -91 343 -12 37 -19 73 -16
80 3 10 7 8 12 -6 4 -11 13 -33 20 -50 8 -16 32 -79 56 -140 37 -98 70 -155
89 -155 3 0 16 9 28 20 18 17 41 26 42 18 29 -167 37 -202 48 -206 14 -4 17
32 13 198 -5 192 -73 466 -166 668 -19 41 -35 76 -35 78 0 8 12 3 23 -9z
m-3943 -44 c-27 -19 -151 -135 -269 -253 -41 -41 -116 -126 -166 -190 -147
-184 -409 -572 -492 -728 -80 -149 -192 -380 -238 -492 -33 -79 -46 -111 -74
-172 -11 -26 -21 -50 -21 -52 0 -3 -30 -67 -66 -143 -79 -165 -172 -383 -203
-473 -22 -63 -27 -79 -49 -130 l-11 -25 0 29 c-1 16 3 45 8 65 6 20 20 74 32
121 36 140 110 358 170 505 4 11 13 38 20 60 7 22 17 44 21 49 4 6 8 17 8 25
0 9 11 38 25 65 23 48 24 66 5 66 -6 0 -37 -34 -70 -76 -62 -78 -75 -82 -40
-14 11 22 20 45 20 53 0 7 9 32 20 55 11 22 20 51 20 64 -1 20 -5 18 -40 -22
-22 -25 -39 -40 -40 -35 0 41 95 278 173 430 69 132 109 180 277 333 58 53
200 188 316 301 302 296 647 601 679 601 5 0 -2 -8 -15 -17z m1256 -151 c-36
-64 -165 -324 -217 -439 -17 -37 -42 -93 -56 -123 -14 -30 -29 -64 -33 -75 -9
-24 -30 -71 -60 -140 -23 -53 -23 -53 -65 -160 -15 -38 -31 -79 -35 -90 -5
-11 -21 -54 -35 -95 -15 -41 -47 -131 -72 -200 -68 -192 -115 -331 -124 -370
-21 -99 -54 -210 -61 -210 -4 0 -8 97 -8 216 0 198 -1 215 -16 203 -9 -7 -21
-25 -27 -39 -10 -23 -11 -23 -14 -5 -4 20 18 135 32 168 10 25 -7 22 -68 -12
-28 -16 -83 -40 -122 -53 -82 -27 -122 -64 -148 -134 -11 -27 -23 -61 -29 -76
l-10 -28 -130 0 c-71 0 -128 3 -126 8 8 15 60 128 75 162 44 101 174 357 224
442 31 53 70 120 86 150 48 87 52 92 207 326 83 124 152 220 154 214 2 -7 -6
-25 -17 -41 -12 -16 -21 -31 -21 -34 0 -3 -19 -38 -43 -79 -41 -69 -158 -288
-219 -408 -89 -178 -171 -377 -164 -396 5 -14 36 2 163 83 29 18 56 33 61 33
15 0 131 105 175 160 40 49 188 282 224 351 53 104 544 782 551 761 1 -5 -13
-36 -32 -70z m2541 -184 c-3 -8 -6 -5 -6 6 -1 11 2 17 5 13 3 -3 4 -12 1 -19z
m-2110 -55 c-5 -28 -24 -101 -71 -273 -15 -52 -31 -117 -36 -145 -6 -27 -14
-70 -20 -95 -6 -25 -14 -67 -19 -95 -6 -27 -17 -85 -25 -129 -15 -76 -14 -102
4 -91 12 8 199 56 238 62 18 3 35 9 38 14 3 5 16 9 30 9 45 0 63 30 104 180 7
25 27 86 45 135 18 50 39 108 46 130 6 22 15 49 20 60 4 11 10 31 12 45 10 49
50 185 57 193 4 5 5 -155 3 -355 -5 -345 2 -555 28 -783 17 -156 22 -258 12
-252 -6 4 -13 20 -16 37 -4 16 -16 51 -28 77 -12 27 -35 76 -50 111 -16 34
-29 69 -29 76 0 18 -27 40 -34 28 -5 -8 7 -182 19 -267 l6 -40 -21 40 c-19 39
-64 137 -101 223 -10 23 -23 42 -29 42 -6 0 -50 -13 -98 -29 -48 -15 -123 -38
-167 -51 -156 -43 -147 -37 -162 -110 -7 -36 -15 -82 -18 -102 -11 -73 -25
-38 -25 62 0 84 -3 102 -16 107 -24 9 -169 -14 -335 -52 -87 -20 -106 -19
-127 6 -9 12 -39 47 -66 78 -83 96 -81 83 -40 207 38 118 78 231 99 279 7 17
20 47 29 68 8 20 17 37 19 37 3 0 54 -25 113 -57 60 -31 150 -76 199 -101 50
-24 98 -48 107 -53 33 -17 68 -11 68 11 0 11 9 53 21 93 11 39 25 88 29 107 5
19 13 51 18 70 6 19 20 70 31 113 23 85 96 310 111 342 5 11 12 30 15 43 9 31
18 27 12 -5z m-1773 -50 c-72 -94 -374 -557 -374 -573 0 -13 11 -19 41 -24 23
-4 51 -13 62 -21 32 -23 39 -19 77 36 19 29 43 61 52 72 10 11 18 23 18 27 0
3 8 15 18 26 10 10 40 51 68 90 55 79 191 262 211 282 7 7 19 23 28 34 8 12
17 19 21 16 3 -4 -19 -42 -49 -85 -46 -66 -148 -230 -217 -348 -10 -16 -38
-65 -64 -108 -25 -43 -46 -79 -46 -81 0 -2 -20 -39 -45 -82 -63 -110 -60 -122
18 -83 31 15 69 22 144 26 l102 6 26 38 c14 21 25 41 25 43 0 3 12 22 26 43
14 21 30 47 35 58 21 45 37 66 42 58 3 -5 -16 -52 -41 -104 -61 -124 -166
-350 -219 -469 -16 -36 -86 -210 -123 -305 -11 -28 -60 -164 -72 -200 -5 -16
-14 -39 -18 -50 -16 -38 -52 -140 -60 -170 -15 -58 -11 14 6 100 16 80 30 179
41 288 4 39 2 57 -6 57 -18 0 -94 -83 -126 -138 -16 -28 -34 -50 -40 -48 -5 1
-13 49 -16 107 -4 57 -7 110 -8 117 -2 21 -27 13 -41 -13 -15 -29 -40 -33 -40
-7 0 9 9 55 20 102 23 100 25 150 8 149 -18 0 -153 -278 -215 -439 -30 -78
-37 -96 -53 -135 -6 -16 -18 -50 -26 -75 -8 -25 -19 -54 -23 -65 -9 -20 -73
-221 -90 -280 -16 -56 -36 -134 -57 -220 l-8 -30 -4 30 c-4 29 3 73 33 200 45
192 57 243 64 265 5 14 14 45 21 70 15 53 79 256 90 285 4 11 14 40 21 65 7
25 25 74 41 109 33 76 33 74 8 61 -11 -6 -20 -17 -20 -24 0 -8 -7 -17 -16 -20
-20 -8 -303 5 -309 14 -17 28 209 532 310 690 65 100 70 104 162 97 43 -4 92
-9 108 -12 29 -5 34 0 113 112 115 164 196 268 275 355 37 41 75 84 85 96 30
38 36 24 6 -15z m246 -13 c0 -5 -5 -10 -11 -10 -5 0 -7 5 -4 10 3 6 8 10 11
10 2 0 4 -4 4 -10z m2767 -162 c-3 -8 -6 -5 -6 6 -1 11 2 17 5 13 3 -3 4 -12
1 -19z m33 -64 c0 -9 16 -66 35 -127 20 -62 41 -130 47 -152 6 -22 15 -53 19
-70 37 -126 85 -330 110 -465 6 -30 14 -71 19 -90 14 -59 23 -150 14 -150 -5
1 -31 45 -57 99 -26 54 -62 115 -80 136 l-32 37 -195 8 c-107 4 -238 5 -290 3
l-95 -6 -23 42 c-13 22 -30 41 -39 41 -14 0 -15 -14 -11 -100 5 -107 -4 -137
-22 -71 -17 63 -92 288 -119 356 -35 86 -53 201 -49 296 l4 74 84 -2 c154 -3
445 -42 591 -79 95 -24 93 -26 85 64 -4 42 -9 101 -12 131 -4 38 -3 51 5 47 6
-4 11 -14 11 -22z m2747 -676 c-3 -8 -6 -5 -6 6 -1 11 2 17 5 13 3 -3 4 -12 1
-19z m-3393 -578 c15 -47 31 -103 37 -125 45 -158 155 -484 199 -590 4 -11 20
-50 34 -88 14 -37 35 -89 47 -115 12 -26 25 -56 30 -67 27 -63 183 -380 215
-435 20 -36 51 -93 70 -128 18 -34 54 -94 79 -133 25 -38 45 -72 45 -74 0 -3
15 -27 33 -53 56 -83 70 -112 55 -116 -18 -6 -90 -15 -175 -22 l-71 -6 -31 53
c-173 298 -346 752 -449 1179 -60 248 -83 357 -123 595 -7 39 -18 99 -25 134
-7 35 -10 71 -6 80 3 8 7 11 8 5 1 -5 14 -47 28 -94z m8155 57 c0 -21 -1 -21
-9 -2 -12 28 -12 37 0 30 6 -3 10 -16 9 -28z m18 -59 c-3 -7 -5 -2 -5 12 0 14
2 19 5 13 2 -7 2 -19 0 -25z m27 -43 c3 -8 1 -15 -4 -15 -6 0 -10 7 -10 15 0
8 2 15 4 15 2 0 6 -7 10 -15z m-247 -427 c-3 -8 -6 -5 -6 6 -1 11 2 17 5 13 3
-3 4 -12 1 -19z m-200 -100 c-3 -7 -5 -2 -5 12 0 14 2 19 5 13 2 -7 2 -19 0
-25z m20 -50 c-3 -8 -6 -5 -6 6 -1 11 2 17 5 13 3 -3 4 -12 1 -19z m53 -118
c0 -5 -2 -10 -4 -10 -3 0 -8 5 -11 10 -3 6 -1 10 4 10 6 0 11 -4 11 -10z
m-11233 -212 c-3 -7 -5 -2 -5 12 0 14 2 19 5 13 2 -7 2 -19 0 -25z m1791 -450
c73 -148 245 -394 367 -528 184 -202 406 -380 472 -380 15 0 73 14 128 30 171
52 533 135 543 125 4 -4 -14 -26 -40 -49 -105 -93 -222 -261 -253 -364 -10
-33 13 -36 69 -7 27 14 57 25 65 25 27 1 122 60 251 156 65 49 215 136 320
186 68 32 113 49 325 118 39 12 90 32 116 44 76 37 136 51 162 37 12 -6 47
-46 77 -88 30 -42 72 -98 94 -126 l38 -49 142 6 c77 4 193 11 256 17 137 10
690 11 810 0 61 -6 89 -5 98 4 10 9 15 67 19 219 3 114 9 203 13 199 10 -12
34 -93 75 -258 20 -82 41 -157 46 -166 6 -12 33 -20 96 -28 205 -27 405 -63
493 -89 87 -25 89 -30 101 -178 13 -158 6 -1057 -9 -1164 -6 -41 -16 -127 -22
-190 -11 -109 -40 -325 -61 -455 -5 -33 -15 -89 -20 -125 -6 -36 -14 -87 -19
-115 -5 -27 -13 -79 -19 -115 -5 -36 -12 -74 -15 -85 -3 -11 -12 -63 -21 -115
-9 -52 -20 -115 -25 -140 -5 -25 -30 -155 -55 -290 -26 -135 -51 -259 -56
-276 -5 -17 -9 -43 -9 -59 0 -16 -4 -42 -9 -59 -5 -17 -15 -62 -21 -101 -7
-38 -18 -104 -26 -145 -41 -223 -62 -341 -89 -515 -9 -55 -20 -125 -25 -155
-9 -55 -20 -121 -40 -255 -27 -176 -71 -517 -89 -680 -6 -49 -16 -137 -23
-195 -7 -63 -12 -221 -12 -395 1 -314 8 -390 64 -670 11 -56 11 -60 -10 -77
-29 -24 -191 -170 -275 -249 -100 -94 -129 -119 -136 -119 -3 0 -30 46 -59
103 -29 56 -61 114 -71 129 -11 14 -19 29 -19 33 0 6 -179 285 -190 295 -3 3
-34 43 -70 90 -254 334 -429 496 -592 546 -56 17 -62 17 -225 -5 -92 -12 -195
-26 -228 -32 -55 -8 -131 -20 -260 -39 -79 -11 -370 -48 -480 -59 -127 -14
-491 -14 -553 -1 -26 6 -69 16 -97 22 -116 25 -276 123 -353 216 -61 73 -148
212 -240 382 -19 36 -53 99 -77 140 -23 41 -55 100 -72 130 -17 30 -41 75 -55
100 -14 25 -42 77 -63 115 -21 39 -60 111 -87 160 -91 166 -241 474 -295 605
-8 19 -22 51 -30 70 -25 58 -30 72 -61 155 -16 44 -37 107 -47 140 -9 33 -21
71 -26 85 -23 67 -62 239 -88 386 -28 153 -24 452 10 744 4 41 11 117 15 168
7 93 24 138 24 63 0 -48 21 -133 49 -197 45 -100 150 -224 305 -358 104 -90
156 -185 156 -282 0 -67 -16 -108 -77 -195 -28 -41 -56 -93 -62 -116 -29 -108
80 -353 231 -517 10 -11 18 -23 18 -28 0 -17 -42 -7 -66 17 -50 50 -59 19 -20
-69 13 -30 30 -90 36 -133 6 -43 21 -97 32 -120 42 -86 281 -293 322 -277 31
12 14 47 -41 84 -50 34 -71 60 -35 44 21 -9 43 -8 102 4 81 17 230 88 230 109
0 11 -5 13 -17 8 -52 -22 -152 -38 -263 -42 l-125 -4 -43 31 c-87 63 -105 138
-51 216 39 57 82 84 135 84 37 0 74 8 180 41 39 12 189 12 251 0 26 -6 86 -17
133 -27 47 -9 99 -20 115 -24 17 -5 42 -11 58 -14 34 -8 37 -36 3 -36 -29 0
-85 -23 -138 -56 -52 -33 -38 -50 23 -30 24 8 82 27 129 41 46 14 92 33 102
41 9 9 47 24 85 33 63 16 68 19 71 47 5 38 -25 93 -55 100 -16 5 -28 0 -41
-16 -17 -22 -20 -22 -78 -9 -66 15 -260 110 -373 184 -79 51 -231 125 -296
142 -153 42 -165 43 -270 7 -5 -2 -20 -11 -32 -20 -21 -15 -23 -14 -76 58 -30
40 -72 90 -94 112 -37 36 -39 41 -29 70 6 17 23 51 37 76 46 79 59 119 59 191
0 116 -26 160 -194 324 -127 125 -226 238 -226 259 0 5 -9 21 -20 36 -41 57
-70 156 -70 236 l0 76 58 57 c31 31 95 83 142 116 154 107 261 232 365 427
146 275 165 507 57 713 -87 165 -279 327 -467 393 -56 20 -93 24 -101 11 -4
-7 -3 -14 2 -16 6 -2 33 -21 61 -42 28 -21 79 -52 113 -70 34 -18 77 -41 95
-51 18 -10 43 -24 56 -32 50 -28 110 -81 137 -121 38 -55 94 -163 109 -207 13
-40 27 -130 20 -130 -3 0 -38 33 -78 73 -79 79 -163 143 -219 169 -152 70
-245 76 -395 23 -55 -19 -107 -35 -117 -35 -26 0 -119 168 -167 302 l-20 57
64 40 c36 23 71 41 79 41 8 0 17 4 20 9 3 5 16 11 28 14 13 3 50 12 83 21 79
20 160 19 268 -3 48 -10 90 -14 93 -10 17 28 -84 107 -178 140 -36 12 -51 29
-28 29 6 0 28 8 48 18 20 10 78 30 127 46 50 15 98 32 107 37 10 5 29 9 42 9
14 0 27 4 30 9 3 5 20 11 38 14 18 3 62 13 98 22 36 9 92 20 124 25 32 5 63
13 69 19 6 6 -9 40 -45 98 -30 48 -68 111 -84 138 -32 54 -144 279 -144 289 0
3 -9 25 -20 49 -35 76 -140 356 -140 374 0 12 19 -1 28 -19z m10703 -211 c-8
-8 -11 0 -10 29 1 39 1 39 11 11 7 -21 7 -32 -1 -40z m-3406 -1291 c55 -8 117
-19 139 -24 98 -26 272 -134 328 -204 14 -18 36 -44 48 -58 l22 -25 -69 -6
c-37 -3 -95 -9 -128 -14 -57 -7 -65 -5 -117 24 -101 57 -201 80 -348 81 -147
0 -253 -22 -366 -75 l-56 -27 -69 31 c-38 17 -78 31 -88 31 -35 0 -31 16 17
62 121 116 271 184 462 207 94 12 114 12 225 -3z m-7525 -548 c1 -111 5 -122
58 -153 37 -22 40 -35 12 -53 -25 -15 -25 -43 0 -121 33 -98 101 -203 143
-217 28 -9 20 -21 -40 -56 -48 -27 -68 -33 -120 -33 -53 0 -64 3 -83 25 -68
77 -97 183 -112 403 -13 196 -9 227 40 280 19 20 35 27 64 27 l38 0 0 -102z
m-112 -724 c12 -8 22 -22 22 -30 0 -22 27 -28 53 -12 71 46 82 23 14 -27 -104
-77 -157 -140 -157 -187 -1 -20 -2 -21 -11 -6 -6 12 -7 30 0 55 5 21 15 76 21
123 15 111 17 113 58 84z m9325 -1410 c19 -32 46 -409 53 -759 7 -321 -3 -464
-58 -790 -11 -66 -23 -137 -25 -158 -3 -20 -10 -40 -15 -43 -12 -8 -9 40 20
276 11 91 25 217 31 281 15 163 13 632 -4 909 -20 321 -26 458 -16 365 4 -39
10 -75 14 -81z m-8923 -170 c0 -30 31 -86 82 -146 49 -60 32 -62 -29 -5 -54
50 -69 77 -78 140 -6 41 -5 46 9 41 9 -3 16 -17 16 -30z m399 -135 c111 -36
221 -85 221 -99 0 -9 -184 -25 -260 -23 -25 1 -61 8 -80 16 -39 17 -91 68 -75
74 6 2 31 14 55 28 55 30 57 30 139 4z m10480 -113 c11 -24 41 -95 67 -157 25
-63 52 -127 59 -144 7 -16 23 -55 35 -85 20 -50 37 -90 61 -145 79 -182 221
-611 268 -810 96 -402 106 -717 32 -1080 -41 -203 -98 -362 -215 -595 -102
-202 -228 -379 -391 -545 -49 -50 -227 -205 -236 -205 -5 0 13 44 39 98 83
165 187 438 242 632 7 25 16 56 21 70 20 63 66 273 89 408 5 34 14 88 20 120
19 112 54 382 72 557 17 160 17 704 -1 855 -20 178 -58 440 -81 560 -5 30 -14
80 -20 110 -5 30 -14 73 -19 95 -5 22 -12 56 -16 75 -4 19 -18 77 -31 128 -26
100 -26 102 -19 102 2 0 13 -20 24 -44z m-10544 -43 c31 -5 35 -8 20 -14 -45
-17 -119 -6 -98 15 8 8 27 8 78 -1z m85 -56 c0 -15 -47 -61 -71 -70 -17 -6
-39 10 -39 28 0 12 68 52 93 54 9 1 17 -5 17 -12z m5674 -54 c2 -10 7 -112 11
-228 6 -194 32 -565 55 -780 5 -49 13 -133 19 -185 5 -52 12 -103 16 -112 8
-19 -3 -26 -175 -122 -52 -29 -113 -63 -135 -75 -41 -24 -252 -159 -270 -174
-57 -45 -137 -98 -141 -94 -6 6 239 749 256 779 5 10 10 27 10 37 0 11 4 22 9
25 5 3 11 18 14 33 4 27 39 127 113 328 37 101 125 350 169 482 14 39 25 79
25 87 0 22 17 20 24 -1z m2367 -955 c-9 -31 -9 -30 -10 23 -1 31 2 72 7 90 6
31 7 29 10 -23 2 -31 -1 -71 -7 -90z m-14 -107 c-10 -81 -40 -228 -79 -391
-52 -217 -216 -665 -226 -616 -2 10 1 23 7 29 6 6 11 19 11 29 0 10 4 26 9 36
11 20 77 198 84 227 3 11 19 65 35 120 61 201 142 541 142 595 0 15 3 30 8 34
10 11 15 -19 9 -63z m418 -178 c-9 -37 -18 -20 -9 19 4 18 9 27 11 20 3 -7 2
-24 -2 -39z m-2593 -623 c6 -43 18 -114 37 -210 4 -25 21 -97 36 -160 15 -63
31 -133 36 -155 4 -22 10 -47 14 -56 16 -41 -190 -249 -328 -331 -110 -66
-183 -88 -288 -88 -79 0 -98 4 -153 30 -78 36 -129 91 -179 194 -51 102 -67
151 -67 201 0 82 88 154 433 359 18 11 41 24 52 30 11 6 71 43 133 81 62 39
127 78 145 88 18 11 46 30 62 43 43 33 59 27 67 -26z m1855 -252 c-3 -8 -6 -5
-6 6 -1 11 2 17 5 13 3 -3 4 -12 1 -19z m-7957 -1128 c-11 -110 -31 -238 -50
-325 -4 -22 -14 -67 -21 -100 -6 -33 -25 -107 -41 -165 -17 -58 -32 -117 -35
-133 -3 -15 -9 -30 -14 -33 -5 -3 -9 -13 -9 -23 0 -15 -27 -91 -59 -166 -5
-11 -17 -38 -26 -60 -148 -351 -420 -652 -657 -729 -111 -35 -148 -41 -273
-41 -122 0 -179 8 -260 38 -45 16 -135 74 -179 116 -41 38 -116 146 -116 166
0 9 51 12 203 12 294 0 453 30 667 126 107 49 282 208 392 357 62 86 160 245
206 337 82 163 192 471 242 683 12 52 25 102 28 110 13 32 14 -60 2 -170z
m4220 39 c8 -27 18 -52 22 -55 4 -3 8 -12 8 -20 0 -28 109 -234 166 -316 108
-152 217 -248 629 -553 107 -79 234 -160 295 -188 123 -56 151 -68 175 -77 14
-5 25 -14 25 -19 0 -5 -78 -63 -172 -128 -95 -66 -202 -141 -238 -167 -97 -70
-224 -153 -318 -208 -74 -44 -362 -188 -375 -188 -5 0 -127 -57 -335 -156 -74
-35 -136 -64 -138 -64 -2 0 -63 -29 -136 -64 -282 -135 -348 -158 -348 -121 0
19 -43 159 -73 235 -38 99 -103 213 -236 412 -61 92 -111 170 -111 172 0 3
-17 31 -38 63 -173 260 -322 503 -322 526 0 2 57 7 128 10 78 3 162 13 217 27
102 24 101 24 210 75 76 36 92 49 350 309 149 150 311 308 360 352 106 95 226
194 235 194 4 0 13 -23 20 -51z m3288 -1244 c-2 -3 -31 -9 -64 -14 -197 -29
-391 -84 -528 -151 -163 -78 -468 -271 -631 -398 -95 -74 -297 -279 -371 -377
-79 -104 -224 -318 -256 -376 -44 -78 -46 -83 -54 -104 -14 -39 -17 15 -4 74
29 136 32 152 27 158 -8 7 -31 -16 -51 -52 -9 -17 -25 -43 -35 -60 -30 -49
-91 -157 -91 -161 0 -2 -9 -26 -21 -52 -36 -81 -38 -85 -60 -152 -24 -71 -22
-66 -74 -265 -37 -142 -52 -214 -64 -295 l-6 -45 -282 -3 -283 -2 0 33 c0 39
12 81 48 167 38 92 225 460 290 571 175 298 374 570 550 753 56 57 227 177
447 311 105 63 384 205 405 205 6 0 18 4 28 9 116 59 419 142 672 185 85 14
187 29 225 34 78 11 191 15 183 7z m-1473 -241 c-27 -26 -117 -108 -199 -183
-176 -160 -494 -492 -599 -623 -41 -51 -109 -145 -151 -208 -42 -63 -92 -138
-112 -166 -20 -29 -165 -179 -322 -336 -158 -156 -332 -336 -387 -401 l-100
-117 -683 0 -683 0 43 54 c24 29 52 64 63 78 24 31 127 147 216 244 36 39 121
136 190 215 192 222 298 324 421 407 62 42 78 42 78 -3 0 -27 -16 -59 -67
-135 -36 -55 -64 -103 -61 -106 3 -3 37 15 74 39 63 40 126 76 259 147 142 76
301 172 395 238 142 99 280 192 286 192 3 0 18 8 32 19 34 23 98 58 282 154
233 121 271 142 425 232 128 75 335 195 370 214 77 43 203 88 255 89 23 1 20
-3 -25 -44z m-2996 -1140 c-25 -63 -35 -82 -76 -147 -46 -72 -100 -141 -212
-267 -136 -153 -177 -197 -270 -295 -53 -55 -112 -120 -132 -143 -26 -33 -41
-43 -58 -40 -22 3 -22 4 19 82 73 142 251 383 448 608 174 200 324 307 281
202z m-1123 -575 c3 -5 -31 -48 -75 -96 -45 -48 -102 -118 -128 -155 l-48 -67
-245 0 c-135 1 -234 4 -220 8 151 47 519 224 615 295 46 35 85 40 101 15z
m157 -116 c-24 -65 -48 -127 -53 -138 -5 -11 -12 -30 -15 -42 -6 -22 -10 -23
-126 -23 l-120 0 36 67 c40 74 114 183 153 226 24 25 32 27 98 27 l72 0 -45
-117z"/>
<path d="M6180 10661 c-19 -5 -78 -16 -130 -26 -175 -31 -227 -52 -297 -120
-35 -33 -63 -64 -63 -68 0 -5 -19 -28 -42 -53 -24 -25 -50 -58 -59 -74 -9 -17
-22 -36 -29 -44 -6 -9 -9 -20 -5 -26 13 -20 66 -9 119 25 30 19 60 35 66 35 6
0 43 20 81 45 38 25 74 45 79 45 19 0 10 -16 -17 -33 -16 -9 -50 -37 -76 -62
-27 -25 -51 -45 -55 -45 -4 0 -18 -17 -32 -38 -14 -20 -29 -40 -35 -44 -18
-13 6 -22 25 -10 21 13 50 16 50 6 0 -9 -25 -29 -83 -66 -34 -21 -45 -34 -38
-41 11 -11 75 18 114 51 34 30 30 1 -5 -36 -86 -90 -132 -172 -95 -172 6 0 36
18 65 40 60 46 67 48 51 18 -20 -37 -28 -89 -18 -114 9 -26 29 -33 29 -10 0
19 63 140 95 182 47 61 253 220 275 212 4 -2 -6 -32 -23 -68 -36 -78 -48 -123
-54 -212 -6 -83 9 -109 72 -126 53 -14 57 -32 15 -62 -16 -12 -30 -28 -30 -37
0 -22 79 -130 141 -191 77 -77 138 -102 242 -102 49 0 102 6 126 15 112 39
274 202 288 289 5 31 2 36 -36 62 -25 16 -41 34 -39 43 2 9 27 24 56 35 65 23
75 48 44 109 -37 74 -18 71 138 -16 30 -17 64 -35 75 -41 64 -34 126 -83 131
-101 3 -12 -6 -51 -21 -87 -61 -153 -233 -281 -480 -356 -218 -66 -381 -75
-625 -33 -82 14 -113 22 -135 31 -11 5 -40 16 -65 24 -25 8 -67 24 -93 35 -64
27 -115 27 -157 -1 -38 -26 -55 -57 -24 -43 11 5 47 11 80 13 54 3 69 0 123
-28 33 -18 61 -36 61 -40 0 -5 -8 -22 -17 -39 -14 -23 -15 -33 -6 -42 9 -9 20
-5 46 15 19 15 47 26 64 26 30 0 31 -1 26 -40 -7 -49 4 -51 49 -10 30 28 34
29 45 13 7 -9 13 -28 13 -41 0 -30 31 -27 45 5 9 22 41 37 57 27 4 -3 8 -18 8
-35 0 -39 32 -39 62 1 32 44 65 41 86 -10 20 -47 44 -49 52 -5 4 20 13 32 31
39 22 8 33 4 68 -25 46 -37 71 -33 81 12 9 40 63 37 128 -6 73 -48 86 -46 60
11 -11 23 -10 28 11 45 26 21 50 24 95 10 92 -28 117 -34 123 -27 4 3 -11 24
-33 47 -32 33 -36 41 -24 49 18 12 107 12 175 0 28 -4 51 -7 53 -5 10 9 -14
33 -43 44 -98 35 -69 72 59 77 105 3 100 3 92 11 -9 10 -78 33 -98 33 -30 0
-29 19 1 35 20 10 58 15 115 15 47 0 87 4 90 9 11 17 -23 32 -88 38 -36 3 -63
9 -61 13 9 14 97 20 142 10 50 -12 83 -6 83 15 0 20 -24 25 -111 25 -46 0 -79
4 -79 10 0 6 3 10 8 10 25 0 136 22 150 29 9 5 43 17 75 26 31 9 55 21 51 26
-3 5 -36 9 -75 9 -39 0 -69 4 -69 10 0 6 4 10 10 10 5 0 33 15 62 33 29 18 71
38 93 45 22 8 49 17 60 22 11 5 40 15 65 23 69 23 62 37 -16 37 -68 0 -184 19
-184 30 0 3 19 11 43 18 45 14 94 48 83 59 -3 3 -16 1 -29 -4 -86 -42 -179
-44 -257 -5 -70 35 -76 51 -15 42 38 -6 45 -4 43 8 -4 18 0 16 -158 92 -69 33
-183 90 -255 128 -268 139 -466 200 -714 218 -95 6 -115 3 -243 -41 -22 -8
-40 -10 -44 -4 -3 5 4 9 15 9 11 0 23 5 26 10 3 6 21 10 40 10 19 0 37 5 40
10 3 6 13 10 22 10 9 0 24 6 32 13 34 29 96 39 202 34 126 -6 176 -16 299 -56
101 -34 104 -35 193 -75 32 -14 62 -26 67 -26 6 0 19 -4 30 -10 11 -5 29 -14
40 -20 11 -5 22 -10 25 -10 3 0 5 5 5 10 0 6 -6 10 -14 10 -8 0 -16 4 -18 9
-4 10 -132 71 -224 106 -38 15 -78 31 -89 36 -38 16 -152 50 -206 60 -71 14
-304 20 -349 10z m-153 -97 c-3 -3 -12 -4 -19 -1 -8 3 -5 6 6 6 11 1 17 -2 13
-5z m-94 -21 c-7 -2 -19 -2 -25 0 -7 3 -2 5 12 5 14 0 19 -2 13 -5z m-63 -17
c0 -3 -25 -17 -55 -31 -30 -15 -55 -31 -55 -36 0 -4 -9 -13 -20 -19 -48 -25 8
38 60 68 32 19 70 28 70 18z m150 -21 c-7 -8 -18 -15 -26 -15 -14 0 -136 -51
-144 -60 -3 -3 -55 -41 -117 -83 -103 -71 -143 -92 -128 -67 9 15 152 120 163
120 6 0 12 4 14 8 9 22 196 111 237 112 11 0 11 -3 1 -15z"/>
<path d="M3745 10035 c-22 -8 -50 -15 -62 -15 -12 0 -25 -4 -28 -10 -8 -13 55
-13 88 -1 26 10 152 -7 252 -34 33 -9 71 -18 85 -21 26 -6 61 -19 93 -36 11
-5 21 -7 24 -4 11 11 -35 44 -92 65 -33 13 -69 27 -80 31 -76 30 -230 44 -280
25z"/>
<path d="M3605 9990 c-3 -5 3 -10 15 -10 12 0 18 5 15 10 -3 6 -10 10 -15 10
-5 0 -12 -4 -15 -10z"/>
<path d="M5760 9687 c0 -33 23 -67 37 -53 10 10 -10 79 -24 84 -9 2 -13 -8
-13 -31z"/>
<path d="M4230 8197 c0 -6 35 -34 76 -62 65 -43 118 -92 172 -159 21 -26 32
-19 32 19 0 75 -45 134 -135 178 -59 29 -145 43 -145 24z"/>
<path d="M4472 6713 c-16 -6 -47 -68 -56 -110 -8 -35 15 -93 38 -93 12 0 36
40 36 61 0 6 11 25 25 43 31 41 32 62 3 87 -25 20 -26 20 -46 12z"/>
<path d="M8225 3037 c-22 -12 -41 -25 -43 -29 -2 -5 -8 -8 -14 -8 -30 0 -198
-143 -198 -170 0 -4 -2 -15 -6 -23 -7 -19 43 -77 66 -77 10 0 44 14 74 31 56
30 76 31 76 3 0 -8 5 -14 10 -14 6 0 10 -9 10 -20 0 -11 4 -20 9 -20 5 0 12
-8 15 -18 4 -10 14 -27 24 -38 18 -21 37 -51 59 -95 7 -14 22 -34 33 -44 11
-10 20 -23 20 -30 0 -7 9 -20 20 -30 11 -10 20 -23 20 -29 0 -5 12 -22 27 -38
28 -29 24 -51 -5 -30 -18 12 -443 229 -527 269 -27 13 -58 28 -67 33 -10 6
-25 10 -33 10 -8 0 -15 3 -15 8 0 8 -48 32 -64 32 -6 0 -24 -13 -41 -28 -16
-15 -45 -37 -62 -47 -18 -11 -33 -23 -33 -27 0 -4 -8 -8 -18 -8 -47 0 -69 -84
-36 -135 21 -32 82 -35 109 -5 10 11 21 20 26 20 4 0 20 -21 35 -47 16 -27 34
-57 41 -68 6 -11 21 -39 32 -62 12 -23 26 -45 32 -48 5 -4 15 -17 20 -28 12
-29 49 -91 58 -97 6 -5 41 -74 55 -110 3 -8 15 -30 26 -48 l20 -33 -36 -45
c-37 -45 -37 -45 -21 -79 9 -19 30 -41 46 -50 29 -15 32 -14 85 20 30 19 63
35 74 35 10 0 22 4 28 9 17 17 84 51 100 51 24 0 104 80 104 104 0 24 -33 65
-53 67 -34 3 -74 -4 -94 -17 -12 -8 -29 -14 -38 -14 -8 0 -15 -4 -15 -10 0
-23 -17 -7 -29 28 -7 20 -23 48 -35 62 -11 14 -27 35 -33 48 -7 12 -19 32 -25
45 -7 12 -15 24 -18 27 -7 7 -25 38 -56 95 -14 28 -35 59 -45 71 -16 17 -26
44 -16 44 1 0 29 -14 62 -31 133 -69 277 -141 410 -205 223 -106 240 -114 247
-114 4 0 32 16 62 35 30 19 60 35 66 35 16 0 11 33 -10 60 -11 14 -20 28 -20
32 0 4 -30 51 -68 105 -37 54 -73 110 -81 124 -7 14 -24 39 -37 54 -13 15 -24
32 -24 36 0 5 -13 23 -28 41 -16 18 -41 55 -58 82 -16 27 -36 61 -45 75 -9 14
-27 46 -41 71 l-26 44 24 38 c32 50 30 70 -10 112 -39 42 -48 43 -101 13z"/>
</g>
</svg>
