<svg xmlns="http://www.w3.org/2000/svg" viewBox="0 0 256 256" role="img">
<title>Qubes Snitch</title>
<rect width="256" height="256" rx="48" fill="#6400A8"/>
<path d="M128 24 212 58v70c0 54-34 91-84 108-50-17-84-54-84-108V58z" fill="#1b1025" stroke="#ffffff" stroke-width="12"/>
<g transform="translate(54 73) scale(0.13)" fill="#ff8c00" stroke="none">
<path d="M1042 598 c-12 -18 -41 -52 -66 -75 l-45 -42 29 -21 c17 -12 34 -18
<path d="M882 560 c-30 -33 -57 -73 -61 -88 -4 -15 -5 -72 -3 -127 l4 -100
<path d="M395 481 l-120 -58 60 -27 c33 -15 91 -41 128 -58 l68 -32 120 59
<path d="M663 346 l-123 -61 0 -142 c0 -79 2 -143 4 -143 3 0 44 19 92 41 48
<path d="M254 384 c3 -9 6 -74 6 -145 l0 -130 38 -15 c20 -9 76 -33 125 -55
<path d="M188 329 c-25 -12 -38 -27 -38 -39 0 -25 6 -25 37 0 14 11 31 20 38
<path d="M62 283 c-10 -10 -29 -35 -41 -55 l-23 -38 49 0 c27 0 57 6 66 13 25
</g>
</svg>
